<svg id="Layer_1" data-name="Layer 1" xmlns="http://www.w3.org/2000/svg" viewBox="0 0 1386 1092"><defs><style>.cls-1{fill:#000e1a;}.cls-2,.cls-5{fill:red;}.cls-3{opacity:0.6;}.cls-3,.cls-4{font-size:100px;}.cls-3,.cls-4,.cls-5{font-family:MyriadPro-Regular, Myriad Pro;}.cls-4{fill:#fff;}.cls-5{font-size:49px;}.cls-6{letter-spacing:-0.04em;}.cls-7{letter-spacing:-0.03em;}.cls-8{letter-spacing:-0.03em;}.cls-9{letter-spacing:-0.08em;}</style></defs><title>Untitled-1</title><rect class="cls-1" x="0.5" y="0.5" width="1385" height="1091"/><path d="M1296-31V1059H-88V-31H1296m1-1H-89V1060H1297V-32Z" transform="translate(89 32)"/><rect class="cls-2" x="354.5" y="398.5" width="357" height="237" rx="57.72" ry="57.72"/><path d="M564.78,367A57.29,57.29,0,0,1,622,424.22V545.78A57.29,57.29,0,0,1,564.78,603H323.22A57.29,57.29,0,0,1,266,545.78V424.22A57.29,57.29,0,0,1,323.22,367H564.78m0-1H323.22A58.21,58.21,0,0,0,265,424.22V545.78A58.21,58.21,0,0,0,323.22,604H564.78A58.21,58.21,0,0,0,623,545.78V424.22A58.21,58.21,0,0,0,564.78,366Z" transform="translate(89 32)"/><polygon class="cls-2" points="647.5 615 690.8 615 669.15 652.5 647.5 690 625.85 652.5 604.2 615 647.5 615"/><text class="cls-3" transform="translate(392.39 551.52)">OOPS!</text><text class="cls-4" transform="translate(402.39 540.52)">OOPS!</text><text class="cls-5" transform="translate(815.1 460.66)">A<tspan class="cls-6" x="29.99" y="0"> </tspan><tspan class="cls-7" x="38.37" y="0">T</tspan><tspan x="61.4" y="0">OKEN IS </tspan><tspan x="-40.4" y="58.8">REQUIRED FOR </tspan><tspan class="cls-8" x="-59.75" y="117.6">A</tspan><tspan x="-31.14" y="117.6">UTHORIZ</tspan><tspan class="cls-9" x="155.79" y="117.6">A</tspan><tspan x="182.01" y="117.6">TION</tspan></text></svg>